<?xml version="1.0" encoding="UTF-8" standalone="yes"?>
<!DOCTYPE svg PUBLIC "-//W3C//DTD SVG 1.1//EN" "http://www.w3.org/Graphics/SVG/1.1/DTD/svg11.dtd">
<svg viewBox="-200 -200 400 400" height="400mm" width="400mm" xmlns="http://www.w3.org/2000/svg" xmlns:svg="http://www.w3.org/2000/svg" xmlns:xlink="http://www.w3.org/1999/xlink" version="1.1">
<title>GPS PRN</title>
<desc>Generated by gps_prn.py</desc>
<path d="M-190 -170.0L-188.0 -170.0L-188.0 -170.0L-186.0 -170.0L-186.0 -170.0L-184.0 -170.0L-184.0 -170.0L-182.0 -170.0L-182.0 -170.0L-180.0 -170.0L-180.0 -170.0L-178.0 -170.0L-178.0 -170.0L-176.0 -170.0L-176.0 -170.0L-174.0 -170.0L-174.0 -170.0L-172.0 -170.0L-172.0 -170.0L-170.0 -170.0L-170.0 -190.0L-168.0 -190.0L-168.0 -190.0L-166.0 -190.0L-166.0 -190.0L-164.0 -190.0L-164.0 -170.0L-162.0 -170.0L-162.0 -170.0L-160.0 -170.0L-160.0 -170.0L-158.0 -170.0L-158.0 -190.0L-156.0 -190.0L-156.0 -190.0L-154.0 -190.0L-154.0 -190.0L-152.0 -190.0L-152.0 -170.0L-150.0 -170.0L-150.0 -190.0L-148.0 -190.0L-148.0 -190.0L-146.0 -190.0L-146.0 -170.0L-144.0 -170.0L-144.0 -170.0L-142.0 -170.0L-142.0 -170.0L-140.0 -170.0L-140.0 -190.0L-138.0 -190.0L-138.0 -170.0L-136.0 -170.0L-136.0 -170.0L-134.0 -170.0L-134.0 -190.0L-132.0 -190.0L-132.0 -190.0L-130.0 -190.0L-130.0 -170.0L-128.0 -170.0L-128.0 -190.0L-126.0 -190.0L-126.0 -170.0L-124.0 -170.0L-124.0 -190.0L-122.0 -190.0L-122.0 -170.0L-120.0 -170.0L-120.0 -170.0L-118.0 -170.0L-118.0 -170.0L-116.0 -170.0L-116.0 -190.0L-114.0 -190.0L-114.0 -170.0L-112.0 -170.0L-112.0 -170.0L-110.0 -170.0L-110.0 -170.0L-108.0 -170.0L-108.0 -170.0L-106.0 -170.0L-106.0 -190.0L-104.0 -190.0L-104.0 -170.0L-102.0 -170.0L-102.0 -190.0L-100.0 -190.0L-100.0 -170.0L-98.0 -170.0L-98.0 -190.0L-96.0 -190.0L-96.0 -190.0L-94.0 -190.0L-94.0 -190.0L-92.0 -190.0L-92.0 -170.0L-90.0 -170.0L-90.0 -170.0L-88.0 -170.0L-88.0 -170.0L-86.0 -170.0L-86.0 -170.0L-84.0 -170.0L-84.0 -190.0L-82.0 -190.0L-82.0 -170.0L-80.0 -170.0L-80.0 -190.0L-78.0 -190.0L-78.0 -190.0L-76.0 -190.0L-76.0 -170.0L-74.0 -170.0L-74.0 -190.0L-72.0 -190.0L-72.0 -170.0L-70.0 -170.0L-70.0 -190.0L-68.0 -190.0L-68.0 -170.0L-66.0 -170.0L-66.0 -190.0L-64.0 -190.0L-64.0 -190.0L-62.0 -190.0L-62.0 -190.0L-60.0 -190.0L-60.0 -190.0L-58.0 -190.0L-58.0 -190.0L-56.0 -190.0L-56.0 -170.0L-54.0 -170.0L-54.0 -190.0L-52.0 -190.0L-52.0 -170.0L-50.0 -170.0L-50.0 -170.0L-48.0 -170.0L-48.0 -170.0L-46.0 -170.0L-46.0 -170.0L-44.0 -170.0L-44.0 -170.0L-42.0 -170.0L-42.0 -170.0L-40.0 -170.0L-40.0 -170.0L-38.0 -170.0L-38.0 -170.0L-36.0 -170.0L-36.0 -190.0L-34.0 -190.0L-34.0 -170.0L-32.0 -170.0L-32.0 -190.0L-30.0 -190.0L-30.0 -170.0L-28.0 -170.0L-28.0 -190.0L-26.0 -190.0L-26.0 -170.0L-24.0 -170.0L-24.0 -190.0L-22.0 -190.0L-22.0 -170.0L-20.0 -170.0L-20.0 -190.0L-18.0 -190.0L-18.0 -170.0L-16.0 -170.0L-16.0 -170.0L-14.0 -170.0L-14.0 -170.0L-12.0 -170.0L-12.0 -170.0L-10.0 -170.0L-10.0 -190.0L-8.0 -190.0L-8.0 -170.0L-6.0 -170.0L-6.0 -190.0L-4.0 -190.0L-4.0 -190.0L-2.0 -190.0L-2.0 -190.0L0.0 -190.0L0.0 -190.0L2.0 -190.0L2.0 -170.0L4.0 -170.0L4.0 -170.0L6.0 -170.0L6.0 -170.0L8.0 -170.0L8.0 -190.0L10.0 -190.0L10.0 -170.0L12.0 -170.0L12.0 -190.0L14.0 -190.0L14.0 -190.0L16.0 -190.0L16.0 -170.0L18.0 -170.0L18.0 -190.0L20.0 -190.0L20.0 -190.0L22.0 -190.0L22.0 -190.0L24.0 -190.0L24.0 -170.0L26.0 -170.0L26.0 -170.0L28.0 -170.0L28.0 -190.0L30.0 -190.0L30.0 -190.0L32.0 -190.0L32.0 -170.0L34.0 -170.0L34.0 -190.0L36.0 -190.0L36.0 -170.0L38.0 -170.0L38.0 -170.0L40.0 -170.0L40.0 -190.0L42.0 -190.0L42.0 -170.0L44.0 -170.0L44.0 -190.0L46.0 -190.0L46.0 -170.0L48.0 -170.0L48.0 -170.0L50.0 -170.0L50.0 -190.0L52.0 -190.0L52.0 -190.0L54.0 -190.0L54.0 -170.0L56.0 -170.0L56.0 -170.0L58.0 -170.0L58.0 -170.0L60.0 -170.0L60.0 -170.0L62.0 -170.0L62.0 -190.0L64.0 -190.0L64.0 -170.0L66.0 -170.0L66.0 -190.0L68.0 -190.0L68.0 -170.0L70.0 -170.0L70.0 -170.0L72.0 -170.0L72.0 -190.0L74.0 -190.0L74.0 -190.0L76.0 -190.0L76.0 -190.0L78.0 -190.0L78.0 -170.0L80.0 -170.0L80.0 -170.0L82.0 -170.0L82.0 -190.0L84.0 -190.0L84.0 -190.0L86.0 -190.0L86.0 -170.0L88.0 -170.0L88.0 -170.0L90.0 -170.0L90.0 -170.0L92.0 -170.0L92.0 -170.0L94.0 -170.0L94.0 -170.0L96.0 -170.0L96.0 -170.0L98.0 -170.0L98.0 -190.0L100.0 -190.0L100.0 -190.0L102.0 -190.0L102.0 -170.0L104.0 -170.0L104.0 -190.0L106.0 -190.0L106.0 -170.0L108.0 -170.0L108.0 -190.0L110.0 -190.0L110.0 -170.0L112.0 -170.0L112.0 -190.0L114.0 -190.0L114.0 -170.0L116.0 -170.0L116.0 -190.0L118.0 -190.0L118.0 -190.0L120.0 -190.0L120.0 -170.0L122.0 -170.0L122.0 -170.0L124.0 -170.0L124.0 -190.0L126.0 -190.0L126.0 -190.0L128.0 -190.0L128.0 -170.0L130.0 -170.0L130.0 -170.0L132.0 -170.0L132.0 -190.0L134.0 -190.0L134.0 -190.0L136.0 -190.0L136.0 -170.0L138.0 -170.0L138.0 -190.0L140.0 -190.0L140.0 -170.0L142.0 -170.0L142.0 -190.0L144.0 -190.0L144.0 -190.0L146.0 -190.0L146.0 -170.0L148.0 -170.0L148.0 -170.0L150.0 -170.0L150.0 -170.0L152.0 -170.0L152.0 -170.0L154.0 -170.0L154.0 -170.0L156.0 -170.0L156.0 -190.0L158.0 -190.0L158.0 -170.0L160.0 -170.0L160.0 -190.0L162.0 -190.0L162.0 -190.0L164.0 -190.0L164.0 -170.0L166.0 -170.0L166.0 -170.0L168.0 -170.0L168.0 -170.0L170.0 -170.0L170.0 -190.0L172.0 -190.0L172.0 -190.0L174.0 -190.0L174.0 -190.0L176.0 -190.0L176.0 -190.0L178.0 -190.0L178.0 -170.0L180.0 -170.0L180.0 -190.0L182.0 -190.0L182.0 -190.0L184.0 -190.0L184.0 -190.0L186.0 -190.0L186.0 -170.0L188.0 -170.0L188.0 -170.0L190.0 -170.0L190.0 -190.0L192.0 -190.0L192.0 -170.0" style="fill: none; stroke: red; stroke-width: 0.1"/>
<rect height="25.0" width="389.0" x="-192.5" y="-192.5" style="fill: none; stroke: black; stroke-width: 0.1"/><path d="M-190 -155.0L-188.0 -155.0L-188.0 -155.0L-186.0 -155.0L-186.0 -135.0L-184.0 -135.0L-184.0 -135.0L-182.0 -135.0L-182.0 -135.0L-180.0 -135.0L-180.0 -155.0L-178.0 -155.0L-178.0 -135.0L-176.0 -135.0L-176.0 -135.0L-174.0 -135.0L-174.0 -155.0L-172.0 -155.0L-172.0 -155.0L-170.0 -155.0L-170.0 -135.0L-168.0 -135.0L-168.0 -155.0L-166.0 -155.0L-166.0 -135.0L-164.0 -135.0L-164.0 -155.0L-162.0 -155.0L-162.0 -135.0L-160.0 -135.0L-160.0 -135.0L-158.0 -135.0L-158.0 -135.0L-156.0 -135.0L-156.0 -155.0L-154.0 -155.0L-154.0 -135.0L-152.0 -135.0L-152.0 -135.0L-150.0 -135.0L-150.0 -135.0L-148.0 -135.0L-148.0 -135.0L-146.0 -135.0L-146.0 -155.0L-144.0 -155.0L-144.0 -135.0L-142.0 -135.0L-142.0 -155.0L-140.0 -155.0L-140.0 -135.0L-138.0 -135.0L-138.0 -155.0L-136.0 -155.0L-136.0 -155.0L-134.0 -155.0L-134.0 -155.0L-132.0 -155.0L-132.0 -135.0L-130.0 -135.0L-130.0 -135.0L-128.0 -135.0L-128.0 -135.0L-126.0 -135.0L-126.0 -135.0L-124.0 -135.0L-124.0 -155.0L-122.0 -155.0L-122.0 -135.0L-120.0 -135.0L-120.0 -155.0L-118.0 -155.0L-118.0 -155.0L-116.0 -155.0L-116.0 -135.0L-114.0 -135.0L-114.0 -155.0L-112.0 -155.0L-112.0 -135.0L-110.0 -135.0L-110.0 -155.0L-108.0 -155.0L-108.0 -135.0L-106.0 -135.0L-106.0 -155.0L-104.0 -155.0L-104.0 -155.0L-102.0 -155.0L-102.0 -155.0L-100.0 -155.0L-100.0 -155.0L-98.0 -155.0L-98.0 -155.0L-96.0 -155.0L-96.0 -135.0L-94.0 -135.0L-94.0 -155.0L-92.0 -155.0L-92.0 -135.0L-90.0 -135.0L-90.0 -135.0L-88.0 -135.0L-88.0 -135.0L-86.0 -135.0L-86.0 -135.0L-84.0 -135.0L-84.0 -135.0L-82.0 -135.0L-82.0 -135.0L-80.0 -135.0L-80.0 -135.0L-78.0 -135.0L-78.0 -135.0L-76.0 -135.0L-76.0 -155.0L-74.0 -155.0L-74.0 -135.0L-72.0 -135.0L-72.0 -155.0L-70.0 -155.0L-70.0 -135.0L-68.0 -135.0L-68.0 -155.0L-66.0 -155.0L-66.0 -135.0L-64.0 -135.0L-64.0 -155.0L-62.0 -155.0L-62.0 -135.0L-60.0 -135.0L-60.0 -155.0L-58.0 -155.0L-58.0 -135.0L-56.0 -135.0L-56.0 -135.0L-54.0 -135.0L-54.0 -135.0L-52.0 -135.0L-52.0 -135.0L-50.0 -135.0L-50.0 -155.0L-48.0 -155.0L-48.0 -135.0L-46.0 -135.0L-46.0 -155.0L-44.0 -155.0L-44.0 -155.0L-42.0 -155.0L-42.0 -155.0L-40.0 -155.0L-40.0 -155.0L-38.0 -155.0L-38.0 -135.0L-36.0 -135.0L-36.0 -135.0L-34.0 -135.0L-34.0 -135.0L-32.0 -135.0L-32.0 -155.0L-30.0 -155.0L-30.0 -135.0L-28.0 -135.0L-28.0 -155.0L-26.0 -155.0L-26.0 -155.0L-24.0 -155.0L-24.0 -135.0L-22.0 -135.0L-22.0 -155.0L-20.0 -155.0L-20.0 -155.0L-18.0 -155.0L-18.0 -155.0L-16.0 -155.0L-16.0 -135.0L-14.0 -135.0L-14.0 -135.0L-12.0 -135.0L-12.0 -155.0L-10.0 -155.0L-10.0 -155.0L-8.0 -155.0L-8.0 -135.0L-6.0 -135.0L-6.0 -155.0L-4.0 -155.0L-4.0 -135.0L-2.0 -135.0L-2.0 -135.0L0.0 -135.0L0.0 -155.0L2.0 -155.0L2.0 -135.0L4.0 -135.0L4.0 -155.0L6.0 -155.0L6.0 -135.0L8.0 -135.0L8.0 -135.0L10.0 -135.0L10.0 -155.0L12.0 -155.0L12.0 -155.0L14.0 -155.0L14.0 -135.0L16.0 -135.0L16.0 -135.0L18.0 -135.0L18.0 -135.0L20.0 -135.0L20.0 -135.0L22.0 -135.0L22.0 -155.0L24.0 -155.0L24.0 -135.0L26.0 -135.0L26.0 -155.0L28.0 -155.0L28.0 -135.0L30.0 -135.0L30.0 -135.0L32.0 -135.0L32.0 -155.0L34.0 -155.0L34.0 -155.0L36.0 -155.0L36.0 -155.0L38.0 -155.0L38.0 -135.0L40.0 -135.0L40.0 -135.0L42.0 -135.0L42.0 -155.0L44.0 -155.0L44.0 -155.0L46.0 -155.0L46.0 -135.0L48.0 -135.0L48.0 -135.0L50.0 -135.0L50.0 -135.0L52.0 -135.0L52.0 -135.0L54.0 -135.0L54.0 -135.0L56.0 -135.0L56.0 -135.0L58.0 -135.0L58.0 -155.0L60.0 -155.0L60.0 -155.0L62.0 -155.0L62.0 -135.0L64.0 -135.0L64.0 -155.0L66.0 -155.0L66.0 -135.0L68.0 -135.0L68.0 -155.0L70.0 -155.0L70.0 -135.0L72.0 -135.0L72.0 -155.0L74.0 -155.0L74.0 -135.0L76.0 -135.0L76.0 -155.0L78.0 -155.0L78.0 -155.0L80.0 -155.0L80.0 -135.0L82.0 -135.0L82.0 -135.0L84.0 -135.0L84.0 -155.0L86.0 -155.0L86.0 -155.0L88.0 -155.0L88.0 -135.0L90.0 -135.0L90.0 -135.0L92.0 -135.0L92.0 -155.0L94.0 -155.0L94.0 -155.0L96.0 -155.0L96.0 -135.0L98.0 -135.0L98.0 -155.0L100.0 -155.0L100.0 -135.0L102.0 -135.0L102.0 -155.0L104.0 -155.0L104.0 -155.0L106.0 -155.0L106.0 -135.0L108.0 -135.0L108.0 -135.0L110.0 -135.0L110.0 -135.0L112.0 -135.0L112.0 -135.0L114.0 -135.0L114.0 -135.0L116.0 -135.0L116.0 -155.0L118.0 -155.0L118.0 -135.0L120.0 -135.0L120.0 -155.0L122.0 -155.0L122.0 -155.0L124.0 -155.0L124.0 -135.0L126.0 -135.0L126.0 -135.0L128.0 -135.0L128.0 -135.0L130.0 -135.0L130.0 -155.0L132.0 -155.0L132.0 -155.0L134.0 -155.0L134.0 -155.0L136.0 -155.0L136.0 -155.0L138.0 -155.0L138.0 -135.0L140.0 -135.0L140.0 -155.0L142.0 -155.0L142.0 -155.0L144.0 -155.0L144.0 -155.0L146.0 -155.0L146.0 -135.0L148.0 -135.0L148.0 -135.0L150.0 -135.0L150.0 -155.0L152.0 -155.0L152.0 -135.0L154.0 -135.0L154.0 -135.0L156.0 -135.0L156.0 -135.0L158.0 -135.0L158.0 -135.0L160.0 -135.0L160.0 -135.0L162.0 -135.0L162.0 -135.0L164.0 -135.0L164.0 -135.0L166.0 -135.0L166.0 -135.0L168.0 -135.0L168.0 -135.0L170.0 -135.0L170.0 -135.0L172.0 -135.0L172.0 -135.0L174.0 -135.0L174.0 -155.0L176.0 -155.0L176.0 -155.0L178.0 -155.0L178.0 -155.0L180.0 -155.0L180.0 -135.0L182.0 -135.0L182.0 -135.0L184.0 -135.0L184.0 -135.0L186.0 -135.0L186.0 -155.0L188.0 -155.0L188.0 -155.0L190.0 -155.0L190.0 -155.0L192.0 -155.0L192.0 -135.0" style="fill: none; stroke: red; stroke-width: 0.1"/>
<rect height="25.0" width="389.0" x="-192.5" y="-157.5" style="fill: none; stroke: black; stroke-width: 0.1"/></svg>
